<svg xmlns="http://www.w3.org/2000/svg" class="visually-hidden" style="display: none;">

  <symbol fill="none" viewBox="0 0 60 64" id="icon-antenna">
    <path d="M59.4048 44.1952L42.5184 27.1851L44.3925 17.9541C44.8761 18.1429 45.3903 18.2416 45.9093 18.2453H45.9221C48.3067 18.2735 50.2625 16.3633 50.2908 13.9788C50.3191 11.5943 48.4088 9.6384 46.0243 9.61013C43.6397 9.582 41.6839 11.4921 41.6556 13.8767C41.6496 14.3869 41.734 14.8941 41.9051 15.3749L31.9851 16.5856L15.8037 0.32C15.6052 0.117467 15.3343 0.00226667 15.0507 0C14.7707 0.00146667 14.5025 0.112933 14.304 0.3104L11.2789 3.3184C10.8625 3.73493 10.8625 4.41013 11.2789 4.82667L12.9067 6.47787C6.60053 18.0737 8.6488 32.4335 17.9456 41.8037C18.0309 41.8853 18.1299 41.9513 18.2379 41.9989C18.1707 42.3599 18.1356 42.7261 18.1333 43.0933V55.4667H5.33333C2.38933 55.4701 0.00346667 57.856 0 60.8V62.9333C0 63.5224 0.4776 64 1.06667 64H50.1333C50.7224 64 51.2 63.5224 51.2 62.9333V60.8C51.1965 57.856 48.8107 55.4701 45.8667 55.4667H33.0667V49.9829C35.0719 50.4035 37.1149 50.6179 39.1637 50.6229C44.08 50.6176 48.918 49.392 53.2437 47.056L54.88 48.7019C55.0785 48.9044 55.3495 49.0196 55.6331 49.0219C55.9131 49.0204 56.1812 48.9089 56.3797 48.7115L59.4048 45.7035C59.8212 45.2869 59.8212 44.6117 59.4048 44.1952ZM44.4181 12.4661C45.2535 11.6352 46.6043 11.6389 47.4351 12.4743C48.266 13.3096 48.2623 14.6604 47.4269 15.4912C47.0271 15.8889 46.486 16.1121 45.922 16.112H45.9156C44.7375 16.1059 43.7872 15.1459 43.7933 13.9676C43.7963 13.4036 44.0224 12.8639 44.4223 12.4661H44.4181ZM41.9072 19.4752L40.7104 25.3664L38.3595 23.0016L41.9072 19.4752ZM40.6955 17.6715L36.8555 21.4891L33.8848 18.5024L40.6955 17.6715ZM45.8667 57.6C47.634 57.6 49.0667 59.0327 49.0667 60.8V61.8667H2.13333V60.8C2.13333 59.0327 3.566 57.6 5.33333 57.6H45.8667ZM30.9333 53.3333V55.4667H20.2667V53.3333H30.9333ZM20.2667 51.2V43.0933C20.2667 40.5056 22.6592 38.4 25.6 38.4C28.5408 38.4 30.9333 40.5056 30.9333 43.0933V51.2H20.2667ZM33.0667 47.808V43.0933C33.0667 39.3291 29.7173 36.2667 25.6 36.2667C22.9379 36.2259 20.4485 37.5809 19.0379 39.8389C10.9224 31.2913 9.09493 18.5485 14.4807 8.06467L51.6843 45.4816C45.9395 48.404 39.354 49.2268 33.0667 47.808ZM55.6448 46.4405L54.1419 44.9291L15.04 5.59147L13.5307 4.07893L15.04 2.57493L30.9099 18.5344C30.9173 18.5344 30.9216 18.5483 30.9291 18.5536L57.1584 44.9365L55.6448 46.4405Z" fill="#2E2F42"></path>
    <path d="M25.6096 40.5333H25.6C23.8327 40.5306 22.3979 41.9612 22.3952 43.7285C22.3925 45.4958 23.8231 46.9306 25.5904 46.9333H25.6C27.3673 46.936 28.8021 45.5054 28.8048 43.7381C28.8075 41.9708 27.3769 40.536 25.6096 40.5333ZM26.3563 44.4896C26.1555 44.6893 25.8833 44.801 25.6 44.8C25.0109 44.7969 24.5359 44.3169 24.5389 43.7278C24.5404 43.4458 24.6535 43.176 24.8533 42.977C25.0519 42.7796 25.32 42.6681 25.6 42.6666C26.1891 42.6697 26.6641 43.1497 26.6611 43.7388C26.6596 44.0208 26.5465 44.2906 26.3467 44.4896H26.3563Z" fill="#4D5AE5"></path>
  </symbol>

  <symbol fill="none" viewBox="0 0 51 56" id="icon-clock">
    <path d="M49.4295 23.5396C48.8546 22.7641 48.0109 22.265 47.053 22.1305C46.0908 21.994 45.1414 22.2467 44.3734 22.8345L41.8699 24.7534L41.8688 24.7545L38.0734 27.5887L35.3577 26.507C40.2004 24.3342 43.585 19.4904 43.585 13.8668C43.585 6.22085 37.3396 0 29.6627 0C21.9858 0 15.7405 6.22085 15.7405 13.8668C15.7405 16.6381 16.5692 19.2152 17.9805 21.3837L12.4529 21.3357C12.4497 21.3357 12.4465 21.3357 12.4433 21.3357C12.4262 21.3357 12.4124 21.3442 12.3964 21.3453C12.2908 21.3496 12.1873 21.371 12.086 21.4072C12.0604 21.4168 12.0338 21.4222 12.0093 21.4338C11.9965 21.4392 11.9837 21.4402 11.9709 21.4466L5.50468 24.6391C5.50356 24.6391 5.50256 24.6391 5.50256 24.6401L1.71575 26.4612C1.67412 26.4793 1.6315 26.5038 1.58987 26.5315C0.0804746 27.5363 -0.433659 29.5097 0.393104 31.1225C0.833611 31.9801 1.5835 32.6116 2.50514 32.9006C2.86039 33.0115 3.22302 33.066 3.58353 33.066C4.16279 33.066 4.73667 32.9241 5.26243 32.6436L8.03798 31.1674L12.566 28.8292L15.2797 28.8132L4.39629 39.6444C4.39529 39.6455 4.39417 39.6455 4.39304 39.6465L1.71563 42.3132C1.08312 42.9425 0.73536 43.7777 0.73536 44.6684C0.73536 45.5581 1.08312 46.3953 1.71563 47.0258C2.36526 47.6722 3.21965 47.9965 4.07404 47.9965C4.92955 47.9965 5.78281 47.6722 6.43457 47.0258L9.06287 44.4082L12.5445 41.8086L14.3462 43.6028L10.8229 47.1111C10.8219 47.1122 10.8208 47.1122 10.8196 47.1132L8.14223 49.7799C7.50972 50.4093 7.16196 51.2444 7.16196 52.1352C7.16196 53.0248 7.50972 53.8621 8.14223 54.4926C8.79186 55.139 9.64738 55.4632 10.5018 55.4632C11.3562 55.4632 12.2117 55.139 12.8623 54.4926L15.5407 51.8259L19.8255 47.5592C19.8267 47.5581 19.8267 47.5571 19.8277 47.556L21.8469 45.556L21.8394 45.5485C21.8522 45.5357 21.8703 45.5313 21.8832 45.5176L32.2151 34.2011L39.1571 35.1889C39.2072 35.1964 39.2573 35.1995 39.3075 35.1995C39.4366 35.1995 39.5613 35.1687 39.6819 35.1228C39.7171 35.11 39.748 35.0929 39.7811 35.0759C39.8195 35.0567 39.86 35.046 39.8964 35.0215L46.3231 30.7548C46.3466 30.7388 46.3593 30.7132 46.3817 30.6962C46.4073 30.676 46.4393 30.6675 46.4627 30.645L49.0056 28.2631C50.3288 27.0233 50.5111 24.9924 49.4295 23.5396ZM4.26079 30.761C3.91416 30.9466 3.52053 30.9839 3.14402 30.8645C2.77064 30.7482 2.46776 30.4932 2.29063 30.1487C1.9685 29.5215 2.15513 28.7577 2.71939 28.3449L5.34668 27.0809L5.97919 28.9294L6.24482 29.706L4.26079 30.761ZM11.255 27.1055L8.15848 28.7056L7.64759 27.2122L7.28071 26.139L11.3342 24.1379L11.255 27.1055ZM41.4539 13.8647C41.4539 15.7015 41.0155 17.4339 40.256 18.9837L31.8932 15.1852C31.8057 14.0386 31.2106 13.0348 30.3167 12.4097L33.2447 2.68904C38.0001 4.20169 41.4539 8.63801 41.4539 13.8647ZM17.876 13.8647C17.876 7.39524 23.1646 2.13116 29.6649 2.13116C30.1706 2.13116 30.6655 2.17378 31.1551 2.23566L28.291 11.7431C28.2527 11.7419 28.2164 11.7313 28.1769 11.7313C26.1118 11.7313 24.4317 13.406 24.4317 15.4647C24.4317 17.5234 26.1118 19.1982 28.1769 19.1982C29.5657 19.1982 30.7657 18.4313 31.4132 17.309L39.1381 20.8184C36.9887 23.7112 33.5486 25.5983 29.6648 25.5983C23.1646 25.5983 17.876 20.3342 17.876 13.8647ZM29.7887 15.4647C29.7887 16.3469 29.0654 17.0648 28.1769 17.0648C27.2884 17.0648 26.5651 16.3469 26.5651 15.4647C26.5651 14.5826 27.2884 13.8647 28.1769 13.8647C29.0654 13.8647 29.7887 14.5826 29.7887 15.4647ZM4.92968 45.5132C4.45717 45.9815 3.69228 45.9805 3.2209 45.5143C2.99365 45.2871 2.86889 44.9874 2.86889 44.6684C2.86889 44.3506 2.99365 44.0508 3.2209 43.8258L5.14505 41.9089L6.84746 43.6039L4.92968 45.5132ZM11.3574 52.9801C10.8849 53.4483 10.119 53.4494 9.6475 52.9812C9.42025 52.7539 9.29549 52.4543 9.29549 52.1353C9.29549 51.8174 9.42025 51.5177 9.6475 51.2927L11.5729 49.3748L12.3783 50.1759L13.2764 51.0698L11.3574 52.9801ZM18.3208 46.0423C18.3196 46.0433 18.3186 46.0433 18.3175 46.0445L14.7878 49.5645L13.9824 48.7634L13.0843 47.8695L16.6107 44.3591C16.6107 44.3591 16.6107 44.3591 16.6107 44.3581C16.6119 44.3569 16.6129 44.3569 16.614 44.3559C16.694 44.2759 16.7441 44.1799 16.7932 44.0851C16.8071 44.0573 16.8337 44.0338 16.8455 44.0051C16.8786 43.9229 16.8839 43.8344 16.8967 43.7479C16.9031 43.6988 16.9245 43.653 16.9245 43.6028C16.9245 43.5313 16.8989 43.462 16.884 43.3915C16.8712 43.3275 16.8712 43.2624 16.8466 43.2007C16.8061 43.1004 16.7367 43.0119 16.6642 42.9254C16.644 42.9019 16.6365 42.872 16.6141 42.8497C16.6141 42.8497 16.6141 42.8497 16.613 42.8497C16.6119 42.8487 16.6119 42.8464 16.6109 42.8454L13.3969 39.6454C13.3628 39.6112 13.3191 39.5974 13.2807 39.5686C13.2242 39.5249 13.1698 39.4844 13.1068 39.4534C13.0461 39.4235 12.9842 39.4054 12.9202 39.3882C12.8519 39.369 12.7858 39.3541 12.7143 39.3487C12.6492 39.3445 12.5884 39.3509 12.5234 39.3584C12.4519 39.3669 12.3848 39.3765 12.3154 39.3989C12.2482 39.4202 12.1885 39.4532 12.1267 39.4885C12.0872 39.5109 12.0424 39.5184 12.005 39.5461L8.45836 42.1936L6.6567 40.3995L11.4547 35.6272L20.1759 44.2044L18.3208 46.0423ZM31.9584 32.009C31.9275 32.0047 31.8986 32.0165 31.8677 32.0144C31.7898 32.0101 31.7152 32.0155 31.6373 32.0282C31.5766 32.0389 31.519 32.0506 31.4613 32.0709C31.3931 32.0944 31.3312 32.1264 31.2682 32.1647C31.2085 32.201 31.1541 32.2394 31.1018 32.2874C31.0762 32.3097 31.0453 32.3205 31.0218 32.346L21.6253 42.6374L12.9692 34.1241L18.6354 28.4878C19.0525 28.0718 19.0546 27.3965 18.6386 26.9784C18.4285 26.7683 18.1523 26.6648 17.876 26.6659V26.6649L13.4386 26.6915L13.4941 23.4766L19.7022 23.53C22.2323 26.1178 25.7609 27.7317 29.6649 27.7317C30.5396 27.7317 31.393 27.641 32.2239 27.4863C32.3039 27.5503 32.3827 27.6154 32.4831 27.6559L37.3024 29.576L37.6074 31.0927L37.9637 32.8634L31.9584 32.009ZM40.0406 32.3652L39.4145 29.2495L42.3073 27.0894L43.0647 28.0942L44.2007 29.6025L40.0406 32.3652ZM47.5478 26.7033L45.8721 28.2734L44.0097 25.8009L45.6726 24.5263C45.9829 24.2874 46.3745 24.1902 46.7585 24.2404C47.1446 24.2948 47.486 24.4964 47.7185 24.8089C48.1516 25.3924 48.078 26.2063 47.5478 26.7033Z" fill="#2E2F42"></path>
  </symbol>

  <symbol fill="none" viewBox="0 0 64 50" id="icon-diagram">
    <path d="M3.19833 49.0856H54.3715C56.1378 49.0856 57.5699 47.6535 57.5699 45.8873V41.6228C57.5699 39.8566 56.1378 38.4245 54.3715 38.4245H53.3054V11.8379L59.3611 6.10131C60.7666 6.79418 62.4678 6.37356 63.3876 5.10392C64.308 3.83479 64.1789 2.08727 63.0826 0.96702C61.9863 -0.153227 60.2424 -0.320327 58.953 0.571394C57.6641 1.46364 57.206 3.15494 57.8681 4.57555L53.3054 8.90089V6.44124C53.3054 4.67497 51.8734 3.24291 50.1071 3.24291H7.46276C5.6965 3.24291 4.26443 4.67497 4.26443 6.44124V38.4245H3.19833C1.43206 38.4245 0 39.8566 0 41.6228V45.8873C0 47.6535 1.43206 49.0856 3.19833 49.0856ZM60.7682 2.1768C61.3569 2.1768 61.8343 2.65416 61.8343 3.24291C61.8343 3.83167 61.3569 4.30902 60.7682 4.30902C60.1794 4.30902 59.7021 3.83167 59.7021 3.24291C59.7021 2.65416 60.1794 2.1768 60.7682 2.1768ZM6.39665 6.44124C6.39665 5.85248 6.874 5.37513 7.46276 5.37513H50.1071C50.6958 5.37513 51.1732 5.85248 51.1732 6.44124V10.9186L49.041 12.9446V8.57345C49.041 7.9847 48.5636 7.50735 47.9749 7.50735H9.59498C9.00622 7.50735 8.52887 7.9847 8.52887 8.57345V35.2262C8.52887 35.8149 9.00622 36.2923 9.59498 36.2923H47.9749C48.5636 36.2923 49.041 35.8149 49.041 35.2262V15.8774L51.1732 13.8571V38.4245H6.39665V6.44124ZM15.9916 20.3006C14.5492 20.2965 13.2826 21.2574 12.899 22.6479C12.5153 24.0383 13.1093 25.513 14.3498 26.2491C15.5898 26.9852 17.1697 26.8004 18.2061 25.7973L21.912 27.6567C22.3425 27.8722 22.8646 27.7712 23.1847 27.4115L31.0624 18.549L38.8062 24.3517C39.2216 24.663 39.8016 24.6296 40.1784 24.2731L46.9088 17.8977V34.1601H10.6611V9.63956H46.9088V14.9602L39.3658 22.1034L31.5569 16.2491C31.1134 15.917 30.4892 15.9795 30.1207 16.3933L22.1348 25.3787L19.1493 23.8858C19.1712 23.7577 19.1847 23.6286 19.19 23.499C19.19 21.7327 17.7579 20.3006 15.9916 20.3006ZM17.0577 23.499C17.0577 24.0877 16.5804 24.5651 15.9916 24.5651C15.4029 24.5651 14.9255 24.0877 14.9255 23.499C14.9255 22.9102 15.4029 22.4329 15.9916 22.4329C16.5804 22.4329 17.0577 22.9102 17.0577 23.499ZM23.4544 40.5567H34.1155V41.6228C34.1155 42.2116 33.6381 42.6889 33.0494 42.6889H24.5205C23.9317 42.6889 23.4544 42.2116 23.4544 41.6228V40.5567ZM2.13222 41.6228C2.13222 41.0341 2.60957 40.5567 3.19833 40.5567H21.3222V41.6228C21.3222 43.3891 22.7542 44.8211 24.5205 44.8211H33.0494C34.8156 44.8211 36.2477 43.3891 36.2477 41.6228V40.5567H54.3715C54.9603 40.5567 55.4376 41.0341 55.4376 41.6228V45.8873C55.4376 46.476 54.9603 46.9534 54.3715 46.9534H3.19833C2.60957 46.9534 2.13222 46.476 2.13222 45.8873V41.6228Z" fill="#2E2F42"></path>
  </symbol>

  <symbol fill="none" viewBox="0 0 62 64" id="icon-astronaut">
    <path d="M61.2183 30.6025C61.2149 13.6978 47.5078 -0.00341734 30.6025 6.39362e-07C13.6978 0.00341861 -0.00341734 13.7109 6.39362e-07 30.6157C0.00293033 43.9316 8.61377 55.7178 21.2988 59.7681C21.4199 59.8062 21.5459 59.8257 21.6724 59.8252C21.9136 59.8247 22.1499 59.7603 22.3574 59.6377C22.6274 59.478 22.8291 59.2241 22.9238 58.9248L30.6538 34.4248C32.7671 34.4141 34.4712 32.6919 34.46 30.5791C34.4492 28.4658 32.7275 26.7617 30.6143 26.7725C30.0459 26.7749 29.4849 26.9058 28.9741 27.1553L18.7622 16.9419C18.2554 16.4526 17.4482 16.4668 16.959 16.9731C16.4814 17.4678 16.4814 18.251 16.959 18.7456L27.1655 28.9639C26.3823 30.5625 26.8301 32.4922 28.2383 33.582L20.873 56.9277C6.31738 51.5659 -1.13574 35.4199 4.22608 20.8643C9.58789 6.30859 25.7339 -1.14453 40.2896 4.21729C54.8452 9.5791 62.2983 25.7256 56.9365 40.2808C54.3169 47.3921 48.9346 53.1431 42.0122 56.2275L41.2163 52.479C41.0708 51.79 40.3936 51.3496 39.7046 51.4956C39.4873 51.542 39.2856 51.6441 39.1196 51.792L31.4458 58.6431C30.9194 59.1113 30.8726 59.9175 31.3413 60.4439C31.4937 60.6148 31.689 60.7417 31.9077 60.8115L41.7051 63.9385C42.3755 64.1538 43.0938 63.7852 43.3091 63.1143C43.3774 62.9024 43.3887 62.6768 43.3428 62.459L42.5606 58.7808C53.8892 54.0049 61.2446 42.8965 61.2183 30.6025ZM30.6094 29.3272C31.3135 29.3272 31.8848 29.8984 31.8848 30.6025C31.8848 31.3071 31.3135 31.8779 30.6094 31.8779C29.9048 31.8779 29.334 31.3071 29.334 30.6025C29.334 29.8984 29.9048 29.3272 30.6094 29.3272ZM34.8101 59.0552L39.1782 55.1587L40.3838 60.8394L34.8101 59.0552Z" fill="#2E2F42"></path>
  </symbol>

  <symbol fill="none" viewBox="0 0 16 16" id="instagram-2">
    <g clip-path="url(#clip0_1035819_139)">
      <path d="M15.9843 4.70404C15.9468 3.8539 15.8093 3.26944 15.6124 2.76299C15.4092 2.22541 15.0967 1.74412 14.6872 1.34401C14.2871 0.937683 13.8026 0.621948 13.2713 0.421957C12.7619 0.22502 12.1805 0.0875415 11.3303 0.0500586C10.4738 0.00940124 10.2019 0 8.02963 0C5.85733 0 5.58543 0.00940124 4.73212 0.0468842C3.88197 0.0843671 3.29751 0.221967 2.79119 0.418783C2.25348 0.621948 1.77219 0.934509 1.37209 1.34401C0.965758 1.74412 0.650145 2.22858 0.450033 2.75994C0.253096 3.26944 0.115618 3.85073 0.0781347 4.70087C0.0374774 5.55736 0.0280762 5.82926 0.0280762 8.00156C0.0280762 10.1739 0.0374774 10.4458 0.0749603 11.2991C0.112443 12.1492 0.250043 12.7337 0.446981 13.2401C0.650145 13.7777 0.965758 14.259 1.37209 14.6591C1.77219 15.0654 2.25666 15.3812 2.78801 15.5812C3.29751 15.7781 3.8788 15.9156 4.72906 15.9531C5.58226 15.9907 5.85428 16 8.02658 16C10.1989 16 10.4708 15.9907 11.3241 15.9531C12.1742 15.9156 12.7587 15.7781 13.265 15.5812C14.3403 15.1654 15.1904 14.3153 15.6062 13.2401C15.803 12.7306 15.9406 12.1492 15.9781 11.2991C16.0156 10.4458 16.025 10.1739 16.025 8.00156C16.025 5.82926 16.0218 5.55736 15.9843 4.70404ZM14.5435 11.2366C14.509 12.018 14.3778 12.4399 14.2684 12.7212C13.9995 13.4183 13.4463 13.9715 12.7493 14.2403C12.468 14.3497 12.043 14.481 11.2646 14.5153C10.4207 14.5529 10.1676 14.5622 8.03281 14.5622C5.89799 14.5622 5.64172 14.5529 4.80085 14.5153C4.01945 14.481 3.5975 14.3497 3.31619 14.2403C2.96932 14.1121 2.65359 13.909 2.39731 13.6433C2.13163 13.3838 1.92847 13.0713 1.80027 12.7244C1.69087 12.4431 1.55962 12.018 1.52532 11.2397C1.48771 10.3958 1.47843 10.1426 1.47843 8.00779C1.47843 5.87297 1.48771 5.6167 1.52532 4.77596C1.55962 3.99455 1.69087 3.5726 1.80027 3.29129C1.92847 2.9443 2.13163 2.62869 2.40049 2.37229C2.65981 2.10661 2.97237 1.90345 3.31937 1.77537C3.60067 1.66597 4.0258 1.53472 4.80403 1.50029C5.64794 1.46281 5.90117 1.45341 8.03586 1.45341C10.1738 1.45341 10.4269 1.46281 11.2678 1.50029C12.0492 1.53472 12.4712 1.66597 12.7525 1.77537C13.0993 1.90345 13.4151 2.10661 13.6714 2.37229C13.937 2.63174 14.1402 2.9443 14.2684 3.29129C14.3778 3.5726 14.509 3.99761 14.5435 4.77596C14.581 5.61987 14.5904 5.87297 14.5904 8.00779C14.5904 10.1426 14.581 10.3927 14.5435 11.2366Z" fill="#F4F4FD"></path>
      <path d="M8.02967 3.89136C5.76055 3.89136 3.91949 5.73229 3.91949 8.00153C3.91949 10.2708 5.76055 12.1117 8.02967 12.1117C10.2989 12.1117 12.1398 10.2708 12.1398 8.00153C12.1398 5.73229 10.2989 3.89136 8.02967 3.89136ZM8.02967 10.6677C6.55758 10.6677 5.3635 9.47375 5.3635 8.00153C5.3635 6.52932 6.55758 5.33536 8.02967 5.33536C9.50188 5.33536 10.6958 6.52932 10.6958 8.00153C10.6958 9.47375 9.50188 10.6677 8.02967 10.6677Z" fill="#F4F4FD"></path>
      <path d="M13.262 3.72889C13.262 4.25878 12.8324 4.68843 12.3024 4.68843C11.7725 4.68843 11.3428 4.25878 11.3428 3.72889C11.3428 3.19888 11.7725 2.76935 12.3024 2.76935C12.8324 2.76935 13.262 3.19888 13.262 3.72889Z" fill="#F4F4FD"></path>
    </g>
    <defs>
      <clipPath id="clip0_1035819_139">
        <rect width="16" height="16" fill="white"></rect>
      </clipPath>
    </defs>
  </symbol>

  <symbol fill="none" viewBox="0 0 16 16" id="twitter-1">
    <path d="M16 3.039C15.405 3.3 14.771 3.473 14.11 3.557C14.79 3.151 15.309 2.513 15.553 1.744C14.919 2.122 14.219 2.389 13.473 2.538C12.871 1.897 12.013 1.5 11.077 1.5C9.261 1.5 7.799 2.974 7.799 4.781C7.799 5.041 7.821 5.291 7.875 5.529C5.148 5.396 2.735 4.089 1.114 2.098C0.831 2.589 0.665 3.151 0.665 3.756C0.665 4.892 1.25 5.899 2.122 6.482C1.595 6.472 1.078 6.319 0.64 6.078C0.64 6.088 0.64 6.101 0.64 6.114C0.64 7.708 1.777 9.032 3.268 9.337C3.001 9.41 2.71 9.445 2.408 9.445C2.198 9.445 1.986 9.433 1.787 9.389C2.212 10.688 3.418 11.643 4.852 11.674C3.736 12.547 2.319 13.073 0.785 13.073C0.516 13.073 0.258 13.061 0 13.028C1.453 13.965 3.175 14.5 5.032 14.5C11.068 14.5 14.368 9.5 14.368 5.166C14.368 5.021 14.363 4.881 14.356 4.742C15.007 4.28 15.554 3.703 16 3.039Z" fill="#F4F4FD"></path>
  </symbol>

  <symbol fill="none" viewBox="0 0 16 16" id="facebook-1">
    <g clip-path="url(#clip0_1035819_161)">
      <path d="M10.6647 2.65667H12.1254V0.112667C11.8734 0.078 11.0067 0 9.99736 0C7.89136 0 6.4487 1.32467 6.4487 3.75933V6H4.12469V8.844H6.4487V16H9.29803V8.84467H11.528L11.882 6.00067H9.29736V4.04133C9.29803 3.21933 9.51936 2.65667 10.6647 2.65667Z" fill="#F4F4FD"></path>
    </g>
    <defs>
      <clipPath id="clip0_1035819_161">
        <rect width="16" height="16" fill="white"></rect>
      </clipPath>
    </defs>
  </symbol>

  <symbol fill="none" viewBox="0 0 16 16" id="linkedin-1">
    <g clip-path="url(#clip0_1035819_168)">
      <path d="M15.996 16V15.9994H16V10.1314C16 7.26071 15.382 5.04938 12.026 5.04938C10.4127 5.04938 9.33003 5.93471 8.88803 6.77404H8.84137V5.31738H5.65936V15.9994H8.9727V10.71C8.9727 9.31738 9.2367 7.97071 10.9614 7.97071C12.6607 7.97071 12.686 9.56004 12.686 10.7994V16H15.996Z" fill="#F4F4FD"></path>
      <path d="M0.263977 5.31799H3.58131V16H0.263977V5.31799Z" fill="#F4F4FD"></path>
      <path d="M1.92133 0C0.860667 0 0 0.860667 0 1.92133C0 2.982 0.860667 3.86067 1.92133 3.86067C2.982 3.86067 3.84267 2.982 3.84267 1.92133C3.842 0.860667 2.98133 0 1.92133 0V0Z" fill="#F4F4FD"></path>
    </g>
    <defs>
      <clipPath id="clip0_1035819_168">
        <rect width="16" height="16" fill="white"></rect>
      </clipPath>
    </defs>
  </symbol>
  <symbol viewBox="0 0 8 8" id="icon-close">
    <path d="M8 0.805714L7.19429 0L4 3.19429L0.805714 0L0 0.805714L3.19429 4L0 7.19429L0.805714 8L4 4.80571L7.19429 8L8 7.19429L4.80571 4L8 0.805714Z"></path>
  </symbol>

  <symbol viewBox="0 0 18 24" id="icon-email">
    <path d="M15 6H3C2.175 6 1.5075 6.675 1.5075 7.5L1.5 16.5C1.5 17.325 2.175 18 3 18H15C15.825 18 16.5 17.325 16.5 16.5V7.5C16.5 6.675 15.825 6 15 6ZM14.7 9.1875L9.3975 12.5025C9.1575 12.6525 8.8425 12.6525 8.6025 12.5025L3.3 9.1875C3.1125 9.0675 3 8.865 3 8.6475C3 8.145 3.5475 7.845 3.975 8.1075L9 11.25L14.025 8.1075C14.4525 7.845 15 8.145 15 8.6475C15 8.865 14.8875 9.0675 14.7 9.1875Z"></path>
  </symbol>

  <symbol viewBox="0 0 18 18" id="icon-person">
    <path d="M9 9C10.6575 9 12 7.6575 12 6C12 4.3425 10.6575 3 9 3C7.3425 3 6 4.3425 6 6C6 7.6575 7.3425 9 9 9ZM9 10.5C6.9975 10.5 3 11.505 3 13.5V14.25C3 14.6625 3.3375 15 3.75 15H14.25C14.6625 15 15 14.6625 15 14.25V13.5C15 11.505 11.0025 10.5 9 10.5Z"></path>
  </symbol>

  <symbol viewBox="0 0 18 24" id="icon-phone">
    <path d="M14.7263 13.8651L12.8881 13.6552C12.4467 13.6046 12.0125 13.7566 11.7013 14.0677L10.3697 15.3993C8.3217 14.3572 6.64276 12.6855 5.60067 10.6303L6.93947 9.29144C7.25065 8.98025 7.40263 8.54605 7.35197 8.1046L7.1421 6.28092C7.05526 5.55 6.44013 5 5.70198 5H4.45002C3.63226 5 2.952 5.68026 3.00266 6.49802C3.38621 12.6783 8.32893 17.6138 14.5019 17.9973C15.3197 18.048 15.9999 17.3677 15.9999 16.55V15.298C16.0072 14.5671 15.4572 13.952 14.7263 13.8651Z"></path>
  </symbol>
  <symbol viewBox="0 0 10 8" id="icon-check">
    <path d="M8.44558 0.255056C8.61838 0.0822563 8.89269 0.0822563 9.06549 0.255056L9.74494 0.934511C9.91774 1.10731 9.91774 1.38162 9.74494 1.55442L4.86357 6.43579C4.69077 6.60859 4.41646 6.60859 4.24366 6.43579L0.255056 2.44718C0.0822563 2.27438 0.0822563 2.00007 0.255056 1.82727L0.934511 1.14782C1.10731 0.975017 1.38162 0.975017 1.55442 1.14782L4.55361 4.14701L8.44558 0.255056Z"></path>
  </symbol>
  <symbol id="icon-send" viewBox="0 0 24 20">
  <path d="M24 0L0 11.25L7.66994 13.6172L19.5 4.375L10.5017 14.4913L10.509 14.4936L10.5 14.4913V20L14.8013 15.8183L20.2501 17.5L24 0Z" fill="currentColor" />
</symbol>

</svg>